<svg width="1279" height="111" viewBox="0 0 1279 111" fill="none" xmlns="http://www.w3.org/2000/svg">
<path fill-rule="evenodd" clip-rule="evenodd" d="M-1 0L52 4.17052C106 8.34104 212 16.6821 319 30.7977C426 45.2341 532 65.7659 639 69.9364C746 74.1069 852 61.5954 959 57.7457C1066 53.5751 1172 57.7457 1226 59.6705L1279 61.5954V111H1226C1172 111 1066 111 959 111C852 111 746 111 639 111C532 111 426 111 319 111C212 111 106 111 52 111H-1V0Z" fill="#20DF7F" fill-opacity="0.8"/>
<path fill-rule="evenodd" clip-rule="evenodd" d="M-1 44.4L41.6667 53.28C84.3333 62.16 169.667 79.92 255 75.48C340.333 71.04 425.667 44.4 511 26.64C596.333 8.88 681.667 0 767 0C852.333 0 937.667 8.88 1023 24.42C1108.33 39.96 1193.67 62.16 1236.33 73.26L1279 84.36V111H1236.33C1193.67 111 1108.33 111 1023 111C937.667 111 852.333 111 767 111C681.667 111 596.333 111 511 111C425.667 111 340.333 111 255 111C169.667 111 84.3333 111 41.6667 111H-1V44.4Z" fill="#224957" fill-opacity="0.8"/>
</svg>
